# xmcd
#
# Track frame offsets: 
#        150
#        19873
#        42025
#        59316
#        84144
#        110657
#        133215
#        157987
#        182696
#        221286
#        238244
#        259437
#        271092
#
# Disc length: 3924 seconds
#
# Revision: 0
# Processed by: cddbd v1.5.2PL0 Copyright (c) Steve Scherf et al.
# Submitted via: ExactAudioCopy v1.0b3
#
DISCID=af0f520d
DTITLE=Carl Wyatt - Texas Twister
DYEAR=2011
DGENRE=Blues-Rock
TTITLE0=Billy's Lounge
TTITLE1=Keep Your Feet On The Ground
TTITLE2=Dallas
TTITLE3=Rainy Night In Georgia
TTITLE4=Rosalie
TTITLE5=Beal Street Boogie
TTITLE6=She Treats Me Like A Dog
TTITLE7=Just Like That
TTITLE8=Help Me Blow Them Blues Away
TTITLE9=You Bug Me
TTITLE10=Take Me Out Of Here
TTITLE11=Texas Twister
TTITLE12=Tappin' To The Blues
EXTD=
EXTT0=
EXTT1=
EXTT2=
EXTT3=
EXTT4=
EXTT5=
EXTT6=
EXTT7=
EXTT8=
EXTT9=
EXTT10=
EXTT11=
EXTT12=
PLAYORDER=
